#N canvas 196 254 450 300 10;
#X obj 124 10 inlet;
#X obj 221 22 inlet;
#X obj 151 202 +;
#X obj 195 69 -;
#X obj 165 240 outlet;
#X obj 190 119 random;
#X floatatom 216 181 5 0 0 0 - - -;
#X obj 164 85 bng 15 250 50 0 empty empty empty 17 7 0 10 -262144 -1
-1;
#X connect 0 0 2 0;
#X connect 0 0 3 1;
#X connect 0 0 7 0;
#X connect 1 0 3 0;
#X connect 2 0 4 0;
#X connect 3 0 5 1;
#X connect 5 0 2 1;
#X connect 5 0 6 0;
#X connect 7 0 5 0;
